<?xml version="1.0" encoding="utf-8"?>
<!-- Svg Vector Icons : http://www.onlinewebfonts.com/icon -->
<!DOCTYPE svg PUBLIC "-//W3C//DTD SVG 1.1//EN" "http://www.w3.org/Graphics/SVG/1.1/DTD/svg11.dtd">
<svg version="1.1" xmlns="http://www.w3.org/2000/svg" xmlns:xlink="http://www.w3.org/1999/xlink" x="0px" y="0px" viewBox="0 0 1000 1000" enable-background="new 0 0 1000 1000" xml:space="preserve">
<metadata> Svg Vector Icons : http://www.onlinewebfonts.com/icon </metadata>
<g><path d="M925.5,463.3L486.2,23.9c-18.6-18.5-48.6-18.5-67.2,0c-18.6,18.6-18.6,48.8,0,67.3L827.8,500L419,908.9c-18.6,18.6-18.6,48.6,0,67.2c18.6,18.6,48.6,18.6,67.2,0l439.3-439.2c10.2-10.1,14.3-23.6,13.5-36.9C939.8,486.8,935.7,473.4,925.5,463.3z M594.7,500c0.9-13.2-3.2-26.6-13.3-36.7L142.2,23.9c-18.6-18.5-48.6-18.5-67.4,0c-18.6,18.6-18.4,48.8,0,67.3L483.7,500L74.8,908.9c-18.4,18.6-18.6,48.6,0,67.2c18.7,18.6,48.8,18.6,67.4,0l439.3-439.2C591.5,526.7,595.7,513.2,594.7,500z"/></g>
</svg>