<?xml version="1.0" encoding="UTF-8" standalone="no"?>
<!-- Created with Inkscape (http://www.inkscape.org/) -->

<svg
   version="1.1"
   id="svg69"
   width="1396"
   height="743.76538"
   viewBox="0 0 1396 743.76538"
   sodipodi:docname="logo.svg"
   inkscape:version="1.2.1 (9c6d41e410, 2022-07-14)"
   xmlns:inkscape="http://www.inkscape.org/namespaces/inkscape"
   xmlns:sodipodi="http://sodipodi.sourceforge.net/DTD/sodipodi-0.dtd"
   xmlns="http://www.w3.org/2000/svg"
   xmlns:svg="http://www.w3.org/2000/svg">
  <defs
     id="defs73" />
  <sodipodi:namedview
     id="namedview71"
     pagecolor="#ffffff"
     bordercolor="#000000"
     borderopacity="0.25"
     inkscape:showpageshadow="2"
     inkscape:pageopacity="0.0"
     inkscape:pagecheckerboard="0"
     inkscape:deskcolor="#d1d1d1"
     showgrid="false"
     inkscape:zoom="0.57699229"
     inkscape:cx="676.78548"
     inkscape:cy="547.66763"
     inkscape:window-width="1920"
     inkscape:window-height="1007"
     inkscape:window-x="0"
     inkscape:window-y="0"
     inkscape:window-maximized="1"
     inkscape:current-layer="g75" />
  <g
     inkscape:groupmode="layer"
     inkscape:label="Image"
     id="g75"
     transform="translate(-156,-12.924677)">
    <g
       id="g1057">
      <path
         style="fill:#ff0000;fill-opacity:1;stroke-width:1.33333"
         d="m 1021.1139,481.01884 -2.0001,-2.35219 C 984.06544,408.64383 931.84671,370.43079 905.21894,367.2626 l -1.8726,-1.15732 2.66017,-2.01024 c 29.82151,-17.79617 47.81787,-43.28872 50.60198,-74.56253 1.76184,-19.79071 -1.1416,-41.10987 -11.25701,-57.52006 -9.50585,-15.42131 -17.43225,-23.5927 -33.98992,-32.62463 -13.83754,-7.54814 -51.215,-9.11351 -80.69488,-10.72116 -0.61342,-0.28425 1.10503,-175.453454 1.10503,-175.453454 34.49671,-0.0035 60.56516,5.079446 84.31533,11.007152 125.57456,34.280801 198.88396,139.608832 199.73156,257.092612 0.2753,33.17613 -10.0333,78.17075 -21.142,107.88775 -17.0256,36.73396 -37.6942,64.64711 -66,92.52761 l -2.7763,0.82134 -2.7763,0.82134 -2.0002,-2.35217 z"
         id="path1051" />
      <path
         style="fill:#000000;stroke-width:1.33333"
         d="M 1330.6667,650.00978 V 543.33332 h -13.818 -13.818 l -7.1762,1.36095 -7.1762,1.36093 -8.4689,3.96308 -8.4689,3.96307 -4.1705,3.5092 -4.1704,3.5092 -4.649,5.96712 -4.6489,5.9671 -12.4011,24.19967 -12.4011,24.19968 -17.6497,35.97881 -17.6498,35.97881 -9.3977,19.25377 -9.3977,19.25378 -2.7316,-4.56592 -2.7315,-4.56592 -9.3692,-15.33334 -9.3692,-15.33333 -15.9302,-26 -15.9303,-26 -18.9046,-30.877 -18.9046,-30.877 v -0.88952 -0.88953 l 6.1916,-9.5668 6.1916,-9.56681 17.9639,-31.33333 17.9638,-31.33334 12.4412,-18.66666 12.4411,-18.66667 11.2225,-14 11.2224,-14 10.2823,-9.75913 10.2823,-9.75913 8.9187,-5.76947 8.9187,-5.76947 8.6466,-3.80473 8.6466,-3.80473 159.6667,-0.35444 L 1552,389.95776 v 0.4281 0.42809 l -9.4016,27.25969 -9.4016,27.25968 -4.5094,13.33333 -4.5094,13.33334 -11.4157,33.33333 -11.4159,33.33333 0.024,108.66667 0.024,108.66666 -85.3642,0.34313 -85.3635,0.34314 z"
         id="path1049" />
      <path
         style="fill:#000000;stroke-width:1.33333"
         d="M 634.66668,646.6438 V 536.62095 l -5.26948,-15.64382 -5.26949,-15.64381 -8.00971,-23.33333 -8.00971,-23.33334 -10.83899,-31.33333 -10.839,-31.33333 -1.21514,-3.9912 -1.21515,-3.9912 v -0.34213 -0.34214 h 25.33334 25.33333 V 204.66666 l 0.37814,-191.741983 h 86 86 l -0.37814,191.741983 v 182.66666 l 40.33334,0.0197 40.33333,0.0197 8.66667,1.99339 8.66666,1.9934 2.66667,1.16061 2.66667,1.16061 5.98836,2.49296 5.98836,2.49295 9.34497,6.10547 9.34498,6.10545 7.80737,7.15692 7.80736,7.15693 10.98844,13.40428 10.98844,13.40428 11.87085,17.00373 11.87085,17.00372 15.8829,27.66295 15.8828,27.66293 21.998,36 21.9979,36 21.25,34.66667 21.2499,34.66666 3.0354,4.66667 3.0354,4.66667 19.4545,31.72618 19.4545,31.72617 -1.6207,0.61888 -1.6206,0.61883 -94,-0.34505 -93.99998,-0.34507 -12.01681,-24 -12.01682,-24 -15.23625,-31.33333 -15.23626,-31.33333 -19.39832,-37.9797 -19.39832,-37.97969 -8.01528,-8.09756 -8.01528,-8.09756 -10.66666,-4.38081 -10.66667,-4.3808 -18.33333,-0.72843 -18.33334,-0.72842 v 106.85314 106.85316 h -86 -86 z"
         id="path1047" />
      <path
         style="fill:#000000;stroke-width:1.33333"
         d="m 298.22223,755.77775 -0.88889,-0.88888 V 647.77776 540.66665 H 252.66667 208 v -0.41705 -0.41704 L 195.25082,502.58293 182.50163,465.33332 177.9711,451.99999 173.44056,438.66666 164.72028,413.36075 156,388.05484 v -0.36506 -0.36506 l 201.57797,0.33763 201.57796,0.33764 4.40856,12.66667 4.40856,12.66666 6.75127,20 6.75125,20 1.1386,2.66667 1.13861,2.66666 4.70655,14 4.70655,14 8.09676,24 8.09676,24 1.35051,2.36359 1.35049,2.3636 -1.69685,0.63676 -1.69687,0.63677 -69.33334,0.33298 -69.33333,0.33297 -0.34121,107.66666 -0.34123,107.66667 h -85.10323 -85.10323 z"
         id="path270" />
    </g>
  </g>
</svg>
