<?xml version="1.0" encoding="UTF-8"?>
<!-- Generator: Adobe Illustrator 16.0.0, SVG Export Plug-In . SVG Version: 6.00 Build 0)  -->
<!DOCTYPE svg PUBLIC "-//W3C//DTD SVG 1.1//EN" "http://www.w3.org/Graphics/SVG/1.1/DTD/svg11.dtd">
<svg version="1.1" id="Layer_1" xmlns="http://www.w3.org/2000/svg" xmlns:xlink="http://www.w3.org/1999/xlink" x="0px" y="0px" width="1956px" height="648px" viewBox="0 0 1956 648" enable-background="new 0 0 1956 648" xml:space="preserve">
<path fill-rule="evenodd" clip-rule="evenodd" fill="none" d="M1957,649c-652,0-1304,0-1955.9995,0C1,433,1,217,1,1  c652,0,1303.999,0,1955.999,0C1957,217,1957,433,1957,649z"/>
<path fill-rule="evenodd" clip-rule="evenodd" d="M1353.2822,412.1143c-1.6104-0.1387-3.0654-0.3398-4.5244-0.377  c-23.2939-0.5918-46.5889-1.1729-69.8838-1.7354c-13.9492-0.3369-14.9551,0.4863-17.7979,14.292  c-0.0674,0.3252-0.1221,0.6543-0.1699,0.9834c-2.0508,14.1006-4.0996,28.2012-6.3027,43.3613c27.2998,0,54.7061,0,82.8262,0  C1346.707,451.835,1348.7646,431.8223,1353.2822,412.1143z"/>
<path fill-rule="evenodd" clip-rule="evenodd" d="M1234.9844,189.0654c-1.0381-1.1523-2.1064-2.3857-3.2246-3.5732  c-7.6162-8.0859-15.1133-16.2881-22.9004-24.2051c-7.9111-8.043-15.498-16.5889-24.3467-23.4766  c-10.0908-7.8545-21.4219-14.1143-32.207-21.0791c-12.9775-8.3789-26.1084-16.5332-38.876-25.2217  c-13.8672-9.4365-27.3535-19.4326-41.0869-29.0684c-6.21-4.3564-12.8926-4.3506-19.5791,0.0537  c1.6387,1.3096,3.0811,2.5518,4.6133,3.6709c6.4404,4.7021,14.1768,8.3418,19.0137,14.3301  c5.0078,6.1992,12.4434,8.3779,17.6025,14.3066c5.9834,6.875,14.7861,11.2041,21.7676,17.3213  c16.1455,14.1475,35.1318,24.3955,50.9385,39.2432c15.8164,14.8584,34.1699,27.0098,51.3389,40.4404  C1222.959,195.6572,1230.9209,194.6182,1234.9844,189.0654z"/>
<path fill-rule="evenodd" clip-rule="evenodd" d="M157.0601,253.3096c1.7373-4.4424,3.4775-8.6084,4.9956-12.8545  c1.5713-4.3945,4.2695-7.1436,8.9834-8.3965c30.0137-7.9736,59.9873-16.1006,89.9507-24.2637  c5.792-1.5781,11.4795-3.54,17.2148-5.3242c-0.0762-0.4678-0.1528-0.9355-0.2295-1.4023  c-50.2432,1.4893-100.4868,2.9795-151.2739,4.4854c1.8638,9.9229,3.5723,19.0156,5.2188,27.7822  C143.0259,236.2051,147.1807,247.4082,157.0601,253.3096z"/>
<path fill-rule="evenodd" clip-rule="evenodd" d="M1244.1172,501.9287c2.0898,0,3.2383,0.0469,4.3818-0.0068  c22.0967-1.0352,44.1934-2.0674,66.2871-3.166c1.2549-0.0615,2.7305-0.3652,3.6807-1.1016  c6.1162-4.7354,10.5869-10.7559,13.8877-18.1494c-1.04-0.1494-1.6484-0.3105-2.2568-0.3135  c-24.96-0.125-49.9199-0.1768-74.8789-0.4219c-3.0459-0.0303-4.7881,1.041-5.585,3.7363  C1247.8076,488.6885,1246.1025,494.9072,1244.1172,501.9287z"/>
<path fill-rule="evenodd" clip-rule="evenodd" fill="none" d="M689.9648,394.2891c-0.6064-4.0957-1.1035-7.4521-1.583-10.6865  c-0.5635-0.21-0.8652-0.4199-1.1699-0.4238c-31.7646-0.3936-63.5283-0.79-95.2939-1.0967  c-1.6406-0.0156-3.2881,0.7402-5.3125,1.2295c1.4131,2.6943,2.5576,4.6904,3.5244,6.7686c1.2598,2.71,3.1152,3.7754,6.2559,3.7793  c24.458,0.0322,48.915,0.2705,73.373,0.4238C676.3594,394.3242,682.9609,394.2891,689.9648,394.2891z"/>
<path fill-rule="evenodd" clip-rule="evenodd" d="M1826.7344,336.9385c-5.6396-0.4033-10.9092-0.7832-16.1797-1.1553  c-3.6406-0.2578-7.3496-1.0371-10.9004-0.585c-2.7119,0.3457-5.876,1.6494-7.6914,3.5967  c-4.0391,4.332-7.459,9.2607-10.9336,14.0889c-2.2783,3.166-0.9033,6.9922,2.5234,7.0244  c14.2588,0.1318,28.5195,0.0557,43.1816,0.0557C1826.7344,351.8779,1826.7344,344.3135,1826.7344,336.9385z"/>
<path fill-rule="evenodd" clip-rule="evenodd" d="M1267.9316,403.8018c1.6084,0.1348,2.5791,0.2588,3.5537,0.292  c26.8047,0.8916,53.6094,1.792,80.417,2.5947c1.0752,0.0322,2.752-0.5879,3.166-1.4033c1.542-3.0342,2.6738-6.2764,4.3047-10.292  c-4.6865,0-8.334,0.0801-11.9766-0.0127c-24.1465-0.6123-48.2939-1.2275-72.4395-1.9229c-5.543-0.1602-6.6611,0.6787-7.0137,6.2793  C1267.8604,400.6523,1267.9316,401.9775,1267.9316,403.8018z"/>
<path fill-rule="evenodd" clip-rule="evenodd" d="M803.1484,210.0498c-10.2324-21.2539-19.749-41.0215-29.2656-60.7881  c-0.9414,10.7725-1.0391,20.9043-0.9141,31.0332c0.124,10.0605,0.4707,20.1182,0.71,29.7549  C783.6338,210.0498,792.5537,210.0498,803.1484,210.0498z"/>
<path fill-rule="evenodd" clip-rule="evenodd" d="M1831.3047,301.1934c-4.4707,0.4551-4.9922,2.1895-3.874,6.0859  c1.7295,6.0215,3.0986,12.3086,3.3975,18.543c0.5332,11.0996,0.1504,22.2432,0.1504,33.9922c6.252,0,11.2529,0,16.4404,0  C1846.5479,338.8887,1844.082,318.7305,1831.3047,301.1934z"/>
<path fill-rule="evenodd" clip-rule="evenodd" d="M130.2949,303.9746c0,0.0713,0,0.1436,0,0.2158c-1.9995,0-4-0.041-5.9985,0.0068  c-9.875,0.2393-11.3086,1.8516-10.4854,11.7842c0.1104,1.3262,0.3691,2.6406,0.4766,3.9668  c0.2163,2.6748,1.4194,4.2881,4.2837,4.4902c5.1367,0.3604,10.2896,1.3555,15.395,1.1357  c12.938-0.5596,14.7012-3.0391,13.123-15.8857c-0.4893-3.9805-1.9556-6.0928-6.3008-5.7666  C137.3086,304.1826,133.7939,303.9746,130.2949,303.9746z"/>
<path fill-rule="evenodd" clip-rule="evenodd" d="M133.3945,268.9707c0,0.04,0,0.0811,0,0.1211c-1.9966,0-4-0.1045-5.9893,0.0166  c-12.2896,0.752-12.8608,0.1973-11.5723,14.4746c0.27,2.9893,1.4893,5.3145,4.7656,5.3467  c7.9009,0.0791,15.8076,0.0146,23.7046-0.2363c1.2822-0.04,3.5708-1.2637,3.6167-2.0449c0.2993-5.0586,0.7915-10.3076-0.3433-15.126  c-0.3418-1.4521-5.6226-1.8945-8.7007-2.4893C137.1108,268.6914,135.2256,268.9707,133.3945,268.9707z"/>
<path fill-rule="evenodd" clip-rule="evenodd" d="M1827.5381,330.5918c-1.7705-8.6387-3.4961-17.0566-5.2217-25.4736  c-0.5615-0.0107-1.123-0.0215-1.6836-0.0322c-7.0029,8.1621-14.0049,16.3242-21.8828,25.5059  C1809.2637,330.5918,1818.1133,330.5918,1827.5381,330.5918z"/>
<path fill-rule="evenodd" clip-rule="evenodd" d="M1096.8467,166.9346c-0.5508-0.4336-1.1016-0.8682-1.6514-1.3018  c-1.3857,0.7314-3.3271,1.1025-4.0713,2.25c-9.6787,14.9199-19.1885,29.9512-28.7412,44.9551  c0.4727,0.6826,0.9453,1.3662,1.417,2.0488c2.8945-1.043,7.1064-1.2178,8.4619-3.2744  c7.1934-10.9092,13.8096-22.2109,20.3076-33.5586C1094.5195,174.6475,1095.4492,170.6572,1096.8467,166.9346z"/>
<path fill-rule="evenodd" clip-rule="evenodd" d="M119.7227,259.9014c9.96,0,19.5181,0,26.6411,0  c-5.3789-6.1055-11.4287-12.9717-17.6221-20.002C125.5591,246.958,122.5405,253.6523,119.7227,259.9014z"/>
<path fill-rule="evenodd" clip-rule="evenodd" d="M299.2666,407.4746c-3.2202,11.9834-3.875,21.0996-2.2451,23.8721  c2.5698-7.0322,5.3032-14.5117,8.1709-22.3594C302.9419,408.4131,301.1006,407.9424,299.2666,407.4746z"/>
<path fill-rule="evenodd" clip-rule="evenodd" d="M1739.0898,256.0605c-0.0723,0.5801-0.1445,1.1602-0.2168,1.7412  c-1.5947-0.1152-3.2207-0.0703-4.7803-0.3701c-21.5176-4.1465-43.0039-8.4648-64.5439-12.4941  c-34.3027-6.416-68.5752-13.0273-102.9814-18.8398c-28.8369-4.8721-57.7959-9.1191-86.7969-12.9043  c-26.2217-3.4229-52.5518-6.082-78.877-8.6396c-22.6992-2.207-45.4551-3.8408-68.1924-5.6455  c-16.6016-1.3174-33.2119-2.5225-49.8213-3.7383c-15.5967-1.1416-30.8584-0.7988-45.0996,7.2822  c-5.0322,2.8555-10.7041,5.9199-18.4629,1.4209c0.707,3.3867,0.4619,5.9551,1.6279,7.2012  c8.6406,9.2314,17.8574,17.9355,26.2764,27.3564c4.5596,5.1045,8.9941,10.834,11.6172,17.0674  c11.3633,27.0049,16.2979,55.3594,15.9033,84.6543c-0.1084,8.0889-0.0166,16.1807-0.0166,24.7764  c9.7852,0.7236,18.8887,1.4199,27.9971,2.0615c4.291,0.3018,8.5879,0.6689,12.8848,0.7119  c14.4531,0.1436,28.9082,0.0977,43.3594,0.3164c1.2822,0.0195,2.5439,1.4326,3.8154,2.1982  c-1.2979,0.7168-2.5645,1.9814-3.8994,2.0596c-6.8105,0.3975-13.6387,0.6348-20.4619,0.6582  c-21.6377,0.0732-43.2754,0.0264-65.8252,0.0264c-0.7471,4.6934-1.6055,10.0898-2.6025,16.3486  c6.2627,0,11.2344-0.0459,16.2051,0.0078c21.9824,0.2383,43.9678,0.3809,65.9463,0.8389  c6.3281,0.1318,10.7002-1.4805,12.3223-8.2119c0.5664-2.3506,2.0029-4.585,3.3984-6.627  c18.1191-26.5088,40.6738-47.7383,70.9668-59.8877c22.9346-9.1992,46.7344-15.5703,71.3594-14.6787  c18.9727,0.6885,38.1016,3.8623,56.6396,8.1748c26.124,6.0762,49.4814,18.2725,68.6787,37.6484  c7.7568,7.8291,16.0088,15.167,24.3389,23.0137c1.6709-0.3535,4.2549-1.3662,6.8418-1.376  c29.9814-0.1143,59.9639-0.1396,89.9453,0.0322c2.5313,0.0146,5.0547,1.6123,7.5811,2.4746  c0.0234,0.5635,0.0459,1.127,0.0693,1.6904c-1.4434,0.7822-2.8467,2.1445-4.3359,2.2451  c-6.6377,0.4473-13.3135,0.9131-19.9512,0.6836c-25.6387-0.8867-51.2676-2.0547-76.9033-3.0342  c-1.0938-0.042-2.2197,0.75-3.7646,1.3105c3.8184,5.9014,7.5049,11.0449,10.5352,16.5498c1.2373,2.249,1.5264,5.2979,1.4238,7.9512  c-0.2725,7.0693-0.9932,14.1211-1.5391,21.2256c3.5811,0,6.3818,0.0293,9.1816-0.0049c25.3096-0.3125,50.6191-0.7471,75.9297-0.874  c5.9336-0.0303,6.7471,1.6426,5.0918,8.7832c-27.7988,0.7432-55.8613,1.4932-85.2793,2.2793  c-1.5557,15.2549-3.4082,30.5742-4.4893,45.9473c-0.2881,4.0996,1.5078,8.4648,2.9375,12.499  c0.4824,1.3623,2.7773,2.9316,4.2676,2.957c17.3145,0.2949,34.6396,0.6416,51.9502,0.3223  c22.6445-0.418,45.2764-1.5498,67.9209-2.0352c3.3799-0.0723,4.4727-1.1631,5.543-3.9932  c1.3574-3.5869,2.6465-7.7666,5.3271-10.1689c5.4199-4.8564,11.7666-8.6738,17.7158-12.9414  c17-12.1934,33.5869-24.9951,43.585-43.9092c5.835-11.0391,8.8496-23.0293,3.876-35.583c-1.6123-4.0684-3.4512-7.2656-8.8203-6.9502  c-2.6729,0.1572-5.4092-1.5176-8.1768-2.0576c-6.6592-1.2988-13.3428-3.3506-20.0361-3.4287  c-17.8135-0.2061-35.6367,0.5654-53.459,0.7334c-5.1445,0.0488-12.4375,0.8066-13.1484,0.9033  c-0.293-5.8193-0.4053-7.2686-1.4229-12.6895c-0.415-2.209-0.4385-5.2588,0.7676-6.8789  c7.4463-10.0078,15.2666-19.7393,23.0176-29.5186c7.5137-9.4805,15.0957-18.9072,22.7021-28.4268  c-2.9912-2.2861-5.835-4.0303-8.1572-6.3057c-12.6201-12.3633-27.6514-21.2744-43.1338-29.2559  c-11.5-5.9287-23.8232-10.2471-35.7256-15.4102c-37.8174-16.4033-77.2363-28.1016-117.0488-38.1826  c-36.5693-9.2588-73.498-17.2734-110.5391-24.4424c-39.6553-7.6758-79.5645-14.1221-119.4824-20.332  c-24.8057-3.8594-49.8105-6.4971-74.7695-9.2959c-30.9404-3.4678-61.9238-6.5557-92.8955-9.7402  c-2.6445-0.2715-5.3418-0.0361-8.7051-0.0361c1.0225,1.2822,1.3711,1.8506,1.8398,2.2891  c10.7021,9.9912,21.2607,20.1455,32.252,29.8066c2.3838,2.0957,6.2529,3.002,9.5713,3.4424  c10.8877,1.4443,21.8574,2.2598,32.7588,3.6094c36.8252,4.5566,73.6729,8.96,110.4385,13.96  c31.4736,4.2813,62.8857,9.0586,94.2529,14.0654c30.3711,4.8486,60.6943,10.0283,90.96,15.5  c37.9346,6.8594,75.8174,14.0137,113.6621,21.3477C1706.4473,248.5098,1722.7344,252.459,1739.0898,256.0605z M1683.0498,258.4707  c0.1221-0.1465,0.2451-0.293,0.3682-0.4395c-4.2061-1.0908-8.3633-2.4521-12.626-3.2285  c-25.8291-4.7021-51.6221-9.6504-77.5459-13.7744c-23.9668-3.8125-48.0645-6.8291-72.1367-9.9453  c-20.125-2.6055-40.2842-4.9736-60.4541-7.209c-14.0566-1.5576-28.1768-2.5449-42.2354-4.084  c-25.6367-2.8066-51.2188-6.1455-76.8809-8.6729c-21.5381-2.1201-43.1592-3.4082-64.7432-5.0537  c-8.627-0.6572-17.251-1.6768-25.8867-1.793c-5.9805-0.0811-12.1055,0.6885-18.1094,5.2236  c2.4854,0.5693,3.8623,1.0205,5.2734,1.1885c32.0596,3.8203,64.0947,7.8662,96.1924,11.332  c32.9043,3.5527,65.8652,6.5771,98.8105,9.7412c15.4092,1.4805,30.8477,2.6563,46.2578,4.1289  c27.1719,2.5967,54.3672,5.0029,81.4893,8.0557C1601.5938,248.5273,1642.3105,253.6035,1683.0498,258.4707z M1789.6738,280.3818  c0.0674-0.4453,0.1348-0.8916,0.2021-1.3369c-10.668-6.9248-53.0674-15-57.1299-10.6992  C1751.7949,272.373,1770.7344,276.3779,1789.6738,280.3818z"/>
<path fill-rule="evenodd" clip-rule="evenodd" stroke="#000000" stroke-width="0.2835" stroke-miterlimit="10" d="  M1453.1494,557.4277c-0.4404-0.2344-0.8994-0.4316-1.3447-0.6572c-27.1621-13.7041-47.6592-34.1719-58.1641-62.7256  c-14.0908-38.2979-9.9736-75.4189,13.0703-109.46c15.7617-23.2813,37.2236-40.167,64.4199-47.8584  c53.4004-15.1016,108.8594-0.5195,145.5713,51.9297c7.9033,11.293,12.5645,24.2139,15.2314,37.6621  c8.5879,43.3047-5.1982,79.6846-35.5605,110.3818c-14.4697,14.6289-32.6445,23.5742-52.2031,29.0713  c-11.7412,3.3008-23.9023,6.1738-36.1523,6.5967C1499.7715,572.6523,1470.2188,566.54,1453.1494,557.4277z M1506.3955,531.1816  c22.5713-0.9063,43.4941-6.3057,60.5459-22.6387c23.7393-22.7373,32.4453-50.2588,22.2314-81.3086  c-10.7666-32.7285-35.5498-51.0117-69.5371-54.8594c-35.4473-4.0137-63.4082,9.1836-82.2588,40.2744  c-14.668,24.1943-14.2695,65.0039,5.0752,84.3027c4.7617,4.75,8.498,10.6396,13.6348,14.8809  C1470.5645,523.7842,1487,531.2773,1506.3955,531.1816z"/>
<path fill-rule="evenodd" clip-rule="evenodd" stroke="#000000" stroke-width="0.2835" stroke-miterlimit="10" d="  M1024.2363,465.1982c-105.1387-0.5205-208.4854-1.2354-314.3613-1.7598c-2.189-13.0264-4.5005-28.8574-7.5029-54.5547  c-0.3633-3.1064-0.7041-6.2148-1.0645-9.4082c107.626,1.7461,214.8105,3.4844,322.9287,5.2383c0,0,157.2412,2.8008,232.8398,4.5703  c-3.5,19.5889-6.959,38.9561-10.4453,58.4736C1174.6074,466.7646,1024.2363,465.1982,1024.2363,465.1982z"/>
<path fill-rule="evenodd" clip-rule="evenodd" stroke="#000000" stroke-width="0.2835" stroke-miterlimit="10" d="  M1019.1543,511.0586c-19.332-0.0215-38.667,0.1855-57.9951-0.1064c-59.1465-0.8955-118.2861-2.2979-177.4336-2.8965  c-47.9854-0.4854-95.9805-0.248-143.9688,0.042c-8.7041,0.0527-13.752-2.8438-16.2207-11.3457  c-2.1406-7.3721-5.749-14.0332-12.0742-19.0938c-6.9287-5.543-13.6162-11.5674-11.2334-22.2168  c-3.2881,0.8125-5.835,1.4863-8.4023,2.0654c-2.792,0.6299-4.0186,1.8398-3.8193,5.1543  c1.3906,23.1973-3.0205,45.2764-12.7813,66.4219c-9.8223,21.2793-24.1084,39.208-42.0107,53.833  c-13.4258,10.9678-29.3643,18.2383-45.9561,23.6133c-28.2246,9.1445-56.9326,11.084-85.584,3.0645  c-31.8008-8.9004-58.667-25.4258-79.5381-51.9795c-14.6406-18.627-24.1509-39.0625-28.165-61.957  c-2.543-14.502-2.8755-29.3906-4.1772-43.8643c-5.9331-0.8555-12.6211-2.0811-19.3643-2.7441  c-20.708-2.0342-41.4316-3.9121-62.1602-5.7295c-9.9429-0.8711-19.9023-1.6025-29.8687-2.124  c-3.6177-0.1895-7.4233,1.1885-10.8936,0.5322c-24.6567-4.6611-49.2563-9.6299-73.8457-14.6406  c-1.5313-0.3115-3.3784-1.4775-4.1411-2.791c-8.4243-14.5078-16.6909-29.1074-24.9058-43.7354  c-0.7676-1.3662-1.3647-3.1426-1.2163-4.6465c0.3364-3.417,1.2686-6.7695,1.811-10.1719  c0.9658-6.0557-0.2661-12.1904,6.6523-16.8477c4.0664-2.7383,7.603-6.1543,12.5195-7.2012  c6.6665-1.4189,13.3936-2.582,20.1284-3.6367c2.8887-0.4521,4.5542-1.4619,4.5986-4.6826c0.0317-2.2988,0.998-4.6025,0.9194-6.8828  c-0.4136-11.96-1.0034-23.9141-1.5781-35.8682c-0.6401-13.3057-2.6133-27.0684,5.1162-38.9268  c7.77-11.9209,8.7847-23.9316,4.731-37.1602c-1.5605-5.0918-1.6968-10.6201-2.5474-16.3965  c9.8066-0.707,18.4014-1.6992,27.0127-1.8848c40.8154-0.8818,81.6372-1.4697,122.4536-2.3203  c17.1523-0.3584,33.7632-3.5967,49.2856-11.1729c43.1299-21.0479,86.2363-42.1455,129.291-63.3467  c14.3174-7.0508,28.4199-14.5371,42.6758-21.7148c31.0322-15.623,62.1328-31.1113,93.1357-46.793  c9.7139-4.9131,19.6338-9.1748,30.5791-9.9648c28.7295-2.0723,57.459-4.2646,86.2227-5.709  c34.7715-1.7461,69.5693-3.5332,104.3711-3.916c42.6416-0.4688,85.3018,0.2871,127.9473,0.9463  c17.9756,0.2773,35.9463,1.4707,53.8965,2.6064c11.7695,0.7451,29.2813,0.8721,41.3789,2.0049c0,0,26.3086,3.1289,38.2646,12.2363  c2.8271,2.1533,5.5781,3.084,4.1514,6.6855c40.3096,26.0049,120.6406,76.4795,120.8545,75.9434  c2.8955-0.3926,5.8291-1.291,8.6797-1.0801c7.127,0.5283,14.2051,1.6846,21.3242,2.3691  c32.1387,3.0898,64.3467,5.5703,96.4121,9.2871c34.8408,4.0381,69.6553,8.5391,104.2881,14.0527  c37.4033,5.9551,74.7266,12.6201,111.8145,20.2803c30.5566,6.3105,60.9277,13.7754,91.0049,22.0879  c38.417,10.6182,76.8184,21.4463,113.5137,37.4629c22.5811,9.8564,45.3496,19.3398,65.8467,33.166  c8.6328,5.8232,16.3672,13.0146,24.2256,19.9092c1.3955,1.2246,1.376,4.0488,2.0557,6.1201c0.0752,0.2275,0.457,0.3535,0.7744,0.584  c1.0693-0.625,2.1572-1.2598,3.2275-1.8857c17.0771,19.1338,19.8564,42.8848,22.6992,66.417  c7.2646,2.5957,14.2979,5.0918,21.3145,7.6357c0.9033,0.3271,2.1299,0.6846,2.5068,1.3984  c3.0898,5.8477,7.1182,11.4922,8.7715,17.75c4.209,15.9395-1.9893,29.9414-10.9346,42.583  c-12.4453,17.5918-28.7461,31.3496-46.1826,43.8037c-8.3848,5.9902-17.3066,11.4922-19.8955,22.665  c-0.1846,0.7949-2.2881,1.5098-3.5586,1.6299c-9.2773,0.8701-18.5664,2.1738-27.8594,2.2314  c-32.9678,0.2041-65.9395-0.1904-98.9072,0.0098c-7.6396,0.0459-11.5664-3.8672-14.417-10.001  c-4.0703-8.7588-4.3613-18.0703-3.6172-27.4229c0.7227-9.0869,1.8975-18.1377,2.9502-27.9199  c-6.582,0.458-12.7793,0.8887-18.7373,1.3027c-0.4922,9.4814-0.5928,18.4551-1.4854,27.3486  c-3.8828,38.7021-22.874,69.2754-53.8994,91.3301c-37.8945,26.9375-80.4033,32.4219-124.4531,18.0742  c-33.9824-11.0674-59.6807-33.1299-75.7715-65.4902c-7.6367-15.3584-11.457-31.8672-13.1631-48.8555  c-0.3506-3.4893-1.2734-5.126-5.1104-4.707c-4.458,0.4863-8.9902,0.2832-13.4512,0.7559c-1.1943,0.126-2.6699,1.3916-3.292,2.5303  c-6.125,11.2246-11.6924,22.7734-18.2363,33.7422c-5.5537,9.3086-13.248,15.875-25.1807,16.2559  c-17.6279,0.5625-35.2217,2.1982-52.8496,2.7217c-22.3145,0.6621-44.6475,0.7461-66.9736,0.9326  c-20.8154,0.1738-41.6348,0.3496-62.4482,0.1357C1118.6338,510.8516,1021.4521,511.0605,1019.1543,511.0586z M1034.7246,515.7588  c13.3271-0.2432,87.584,1.3467,111.334,0.6348c54.9365-1.6475,109.9385-0.5137,164.8398-4.2363  c12.0088-0.8145,20.9805-4.6875,26.957-14.7393c6.0215-10.125,12.0283-20.3496,16.8271-31.0742  c2.7891-6.2324,6.377-8.0322,12.5488-7.4287c2.4404,0.2383,3.499,0.7422,3.7676,3.3398c0.5635,5.4541,1.1543,10.9482,2.3486,16.2881  c8.999,40.2422,31.9014,70.6982,68.0049,89.7529c32.5498,17.1787,67.5615,20.8232,103.7793,12.0029  c33.3252-8.1162,59.2959-27.0547,79.6123-53.7373c9.3428-12.2715,15.0244-26.9766,19.2754-41.9844  c4.0068-14.1465,6.0508-28.5361,5.3398-43.5869c2.8184-0.2178,5.3535-0.4141,8.0742-0.624  c-0.6865,7.9229-1.459,15.3545-1.9443,22.8047c-0.7441,11.4375-0.2793,22.8223,6.0674,32.8223  c2.0742,3.2676,5.4746,6.5137,8.9941,7.8389c4.5391,1.709,9.8105,2.0137,14.7617,1.9941  c28.1494-0.1152,56.2979-0.5693,84.4473-0.7773c12.7939-0.0947,25.6182,1.2969,38.2646-2.2334  c3.4541-0.9639,5.7188-2.2686,6.3652-5.7656c1.6279-8.8018,7.7715-13.874,14.6904-18.5781  c16.9863-11.5488,33.0977-24.1943,45.5518-40.7578c5.1729-6.8809,10.6162-13.9473,13.877-21.7861  c5.0752-12.1973,4.5752-25.2832-0.0547-37.6328c-3.0234-8.0645-8.2344-14.8809-17.5225-17.0313  c-2.4287-0.5625-4.7598-1.5732-7.1992-2.0547c-4.3545-0.8594-6.0771-3.3652-6.8379-7.7529  c-1.9297-11.1289-3.9502-22.2949-6.9326-33.1729c-2.7822-10.1494-7.377-19.8135-15.1689-27.1533  c-6.5859-6.2051-13.7725-11.8682-21.1699-17.0957c-11.125-7.8623-22.1484-16.1104-34.124-22.4863  c-44.1328-23.4932-91.2852-39.498-139.3809-52.29c-45.4336-12.085-91.2393-22.9639-137.2471-32.6367  c-36.0605-7.582-72.5986-13.0508-109.0732-18.4551c-30.7578-4.5576-61.6934-7.998-92.6152-11.3369  c-34.2217-3.6953-68.5195-6.6943-102.7793-10.0469c-4.9199-0.4814-10.1875-0.3193-14.625-2.1113  c-6.1064-2.4658-11.7061-6.3066-17.2949-9.9131c-26.0068-16.7813-51.958-33.6504-77.873-50.5723  c-5.4053-3.5293-12.0635-6.377-15.5479-11.3564c-7.293-10.4219-18.3398-14.1865-28.9121-18.248  c-6.6738-2.5645-36.6494-3.3389-39.8008-3.4805c-30.9482-1.3955-61.8867-3.1787-92.8506-3.9521  c-39.4746-0.9873-78.9824-1.9971-118.4521-1.4023c-35.6094,0.5361-71.1934,3.0811-106.7734,5.0117  c-21.1084,1.1455-42.1768,3.0254-63.2852,4.1807c-14.9609,0.8193-29.3828,3.5293-42.8535,10.2266  c-37.665,18.7256-75.2451,37.6221-112.9248,56.3174c-48.6729,24.1504-97.3975,48.1963-146.1318,72.2227  c-7.8867,3.8887-15.6045,8.9453-23.9907,10.8115c-13.3989,2.9834-27.2651,4.9014-40.9824,5.2295  c-40.3115,0.9639-80.6475,0.8652-120.9722,1.3408c-5.9697,0.0703-11.9258,1.0371-17.8945,1.5127  c-4.2368,0.3379-5.8872,2.9434-5.5996,6.748c0.4131,5.4658,0.7563,11.002,1.9341,16.3301  c2.3438,10.6025,3.5869,20.5225-2.9126,30.666c-3.7085,5.7891-5.8525,13.29-6.4321,20.21  c-0.9092,10.8574,0.1777,21.876,0.2754,32.8281c0.0986,11.0684,0.022,22.1377,0.022,33.4063  c-4.3013,0.8213-8.415,1.459-12.4565,2.4072c-8.6143,2.0195-15.4741,3.3184-24.1626,10.1797  c-0.4834,0.3818-1.6006,1.4551-2.147,1.7764c-5.0093,2.9424-5.4424,7.6162-5.4644,13.1338  c-0.0132,3.2021-0.6147,6.4316-1.2314,9.5947c-0.9839,5.0449-1.6782,10.375,1.8198,14.3887  c10.3735,11.9033,16.1768,26.3359,22.7905,40.2686c2.4653,5.1934,5.7319,7.5693,11.0415,8.6143  c21.0508,4.1426,42.0347,8.6299,63.1011,12.6885c4.834,0.9316,9.8965,0.8535,14.8574,0.9082  c6.3042,0.0703,12.6538-0.7227,18.9102-0.2227c20.0815,1.6055,40.1396,3.5264,60.1846,5.5439  c11.043,1.1113,22.042,2.6602,33.1387,4.0215c0.416,4.4717,0.9072,8.2627,1.0977,12.0693  c0.8188,16.3555,2.8569,32.4893,8.0679,48.1104c12.9155,38.7207,38.9487,66.0088,74.3003,85.0869  c33.5654,18.1143,68.9531,22.5449,105.9658,13.3711c18.9395-4.6934,36.7471-11.3711,53.4912-22.2871  c13.1953-8.6016,24.2197-19.2793,33.4063-30.9277c17.4023-22.0654,27.876-47.9219,30.9707-76.3027  c0.6738-6.1748,1.5957-12.3232,2.4893-19.1387c1.8193,2.8984,2.7129,5.8281,4.6904,7.2246  c11.5469,8.1504,18.1406,19.5273,22.6104,32.5576c1.5635,4.5586,5.1953,6.4316,10.1592,6.5  c15.4912,0.2139,30.9775,1.0146,46.4678,1.0527c34.4932,0.084,68.9912-0.5654,103.4785-0.1846  C862.248,514.1094,1034.7246,515.7588,1034.7246,515.7588z"/>
<path fill-rule="evenodd" clip-rule="evenodd" stroke="#000000" stroke-width="0.2835" stroke-miterlimit="10" d="  M158.1665,430.0664c-19.5186-3.3145-39.0483-6.5654-58.5347-10.0586c-1.5884-0.2852-3.4258-1.9414-4.2183-3.4492  c-4.7866-9.1035-9.3027-18.3496-14.2202-28.1689c21.4487,0,42.7524,0,64.2705,0c0.8804-3.7529-1.064-4.335-3.9624-4.3955  c-16.6445-0.3516-33.2876-0.793-49.9316-1.1885c-3.165-0.0752-6.3354-0.001-9.4966-0.1406  c-9.0117-0.3984-10.7153-3.3066-7.1826-11.3652c22.6377,0,45.0869,0,67.8057,0c-0.1299-4.3857-3.1768-3.9883-6.4941-3.9697  c-20.1318,0.1172-40.2646,0.0586-59.9941,0.0586c-2.6362-9.8662,9.585-14.4873,13.6133-16.5781  c8.1787-4.2275,45.8359-4.2705,57.6572-0.7637c0.772,12.2207,0.8081,24.3994,2.5034,36.3418  c0.1846,2.3203,4.0181,1.7783,6.0757,1.7402c44.8184,1.1943,89.1484,2.375,134.1333,3.5723  c-1.8286,16.4648-3.5654,32.1074-5.3682,48.3398c-4.9692-0.2725-9.4048-0.4199-13.8242-0.7734  c-31.0435-2.4863-62.082-5.0332-93.127-7.5039C174.3296,431.4814,159.7344,430.1875,158.1665,430.0664z"/>
<path fill-rule="evenodd" clip-rule="evenodd" stroke="#000000" stroke-width="0.2835" stroke-miterlimit="10" d="  M690.7363,398.9678c2.8008,20.5947,8.6221,63.168,8.9502,64.4658c-1.4688-0.0322-60.1719,0.0049-88.376,0.0049  c-3.2266-22.4063-6.8252-43.9912-16.5908-64.4707C627.0244,398.9678,658.7354,398.9678,690.7363,398.9678z"/>
<path fill-rule="evenodd" clip-rule="evenodd" stroke="#000000" stroke-width="0.2835" stroke-miterlimit="10" d="  M1025.7773,502.1855c-103.4639-1.1563-201.8877-2.2568-306.4863-3.4258c-1.916-2.9678-5.1729-14.8369-7.5596-21.1006  c105.1318,0,318.3057-0.7637,318.3057-0.7637c70.8496,0.5371,141.7188,1.0742,213.0166,1.6143  c0.3545,8.5313-3.127,15.8027-6.2314,23.0996C1167.9395,501.6094,1025.7773,502.1855,1025.7773,502.1855z"/>
<path fill-rule="evenodd" clip-rule="evenodd" stroke="#000000" stroke-width="0.2835" stroke-miterlimit="10" d="  M1023.7783,383.9297c-6.8418,0-13.457,0.0928-20.0693-0.0146c-36.6367-0.5957-73.2715-1.2637-109.9072-1.8613  c-63.6123-1.0361-127.2236-2.0732-190.8369-2.9658c-3.623-0.0508-5.3613-1.4121-5.6816-4.6572  c-0.4219-4.2705-0.5098-8.5732-0.7725-13.4268c109.1982,1.6318,218.0273,3.2578,327.2676,4.8896c0,0,161.8389,3.917,241.4111,6.2754  c-0.3027,1.7031-0.4883,2.8301-0.7041,3.9502c-2.2881,11.8848-2.2949,12.1289-14.5918,11.8535  C1197.1074,386.79,1023.7783,383.9297,1023.7783,383.9297z"/>
<path fill-rule="evenodd" clip-rule="evenodd" stroke="#000000" stroke-width="0.2835" stroke-miterlimit="10" d="  M1262.1836,392.6904c-0.958,4.5-1.7354,8.1465-2.5,11.7334c-77.0313-1.8926-262.6045-5.6914-275.875-5.876  c-37.9814-0.5283-75.959-1.2715-113.9404-1.7861c-53.8057-0.7295-107.6123-1.3457-161.4189-1.9727  c-9.3203-0.1084-10.5078-1.5068-8.9092-11.8467c108.1377,1.7139,216.0137,3.4238,324.2695,5.1406  C1023.8096,388.083,1183.8916,391.0605,1262.1836,392.6904z"/>
<path fill-rule="evenodd" clip-rule="evenodd" stroke="#000000" stroke-width="0.2835" stroke-miterlimit="10" d="  M626.5566,477.9531c7.1592,0,13.6045,0.0547,20.0488-0.0107c17.3076-0.1768,54.3726-1.0137,54.9258-0.333  c0.4063,0.5,5.1382,14.7725,8.4663,21.4531c-0.9644,0.0547-48.1108,0.375-71.5493,0.7295c-2.543,0.0381-3.7939-0.5547-4.6709-3.1582  C631.7793,490.7031,629.2949,484.9375,626.5566,477.9531z"/>
<path fill-rule="evenodd" clip-rule="evenodd" stroke="#000000" stroke-width="0.2835" stroke-miterlimit="10" d="  M247.2993,271.5137c-16.8184,0-32.7632,0.1172-48.7036-0.0791c-4.1699-0.0518-6.6729,1.7051-6.875,5.4785  c-0.6802,12.7197-1.6821,25.4912-1.1577,38.1846c0.4258,10.3066,4.6792,13.2354,14.9941,12.9434  c11.6401-0.3301,23.2759-0.8398,34.9092-1.3682c2.4263-0.1104,4.8335-0.6475,6.833-0.9287  C247.2993,307.1582,247.2993,289.0195,247.2993,271.5137z"/>
<path fill-rule="evenodd" clip-rule="evenodd" stroke="#000000" stroke-width="0.2835" stroke-miterlimit="10" d="M1008.7754,67.832  c-32.9863-0.4453-65.9746-0.8027-98.959-1.3691C867.5,65.7363,825.1875,64.8438,782.873,64  c-1.2578-0.0244-2.5107-0.3076-3.5361-0.4395c0-2.666,0-4.8867,0-6.9756c2.2598,0,4.085-0.0186,5.9102,0.002  c70.4805,0.8076,140.9609,1.5771,211.4395,2.4941c7.1885,0.0938,19.876-1.0967,26.6895,5.3604  c9.9404,7.1973,19.9941,14.2373,29.8838,21.502c11.8008,8.668,23.6641,17.2695,35.1621,26.3301  c31.1035,24.5107,62.0215,49.2588,93.0293,73.8926c9.4658,7.5195,18.9854,14.9727,28.5391,22.502  c-7.7246,11.6895-17.8359,19.9199-30.376,22.9902c-12.3838,3.0322-25.4902,3.1084-38.2793,4.4814  c-0.1455-0.6885-0.29-1.377-0.4355-2.0654c21.3584-2.1221,39.4834-10.666,54.5459-26.4443  c-1.4785-1.1475-2.6074-2.0615-3.7744-2.9238c-14.418-10.6572-28.9941-21.1074-43.2051-32.0332  c-8.6787-6.6719-16.6211-14.2949-25.2002-21.1055c-28.4238-22.5654-56.9521-45.001-85.5313-67.3691  c-4.9072-3.8408-10.2598-7.1123-15.876-10.9688C1016.4668,69.209,1008.7754,67.832,1008.7754,67.832z M1091.0244,233.9658  c8.9004,0.127,17.8047,0.0225,27.2197,0.0225c-6.3232-3.2627-11.5928-6.2881-17.125-8.7109  c-2.959-1.2969-6.3652-2.1377-9.5811-2.1748c-9.9883-0.1133-19.9834,0.4248-29.9736,0.3926  c-10.9756-0.0352-21.8867,0.2515-32.8555-0.1616l-11.9482,0.208c-25.6602,0.0723-51.3857-0.5571-77.0459-0.6626  c-41.6582-0.1719-83.3174-0.2881-124.9736-0.6914c-18.4502-0.1787-36.8916-1.1367-55.3418-1.4521  c-5.4492-0.0928-10.9131,0.8418-16.376,1.2256c-3.6074,0.2539-3.2686,3.0908-2.9395,5.1602  c0.1943,1.2197,1.9893,2.9014,3.2607,3.0967c3.9307,0.6035,7.9531,0.749,11.9424,0.7979  c42.8086,0.5244,85.6172,0.9883,128.4258,1.4824c34.625,0.3994,69.249,0.8477,103.874,1.21  c10.8154,0.1133,21.6328,0.0186,33.0137,0.0186C1020.6006,233.7266,1074.0459,233.7227,1091.0244,233.9658z M1097.7715,219.373  c-2.8691-11.9814,4.834-21.8955,6.5967-33.1064c0.5869-3.7285,2.7588-5.4541,6.9072-5.5928  c11.4004-0.3818,22.7822-1.2754,34.9336-2.0127c-2.5049-2.3887-4.8711-5.0498-7.6289-7.2109  c-23.9824-18.7881-47.9766-37.5605-72.0869-56.1836c-13.3047-10.2764-26.7139-20.4277-40.3408-30.2705l-7.0996-5.6729  c-10.3359-9.1758-22.7256-6.876-34.4385-6.96c-31.3184-0.2256-62.6455,0.5186-93.9619,0.1885  c-38.7676-0.4072-77.5303-1.4424-116.2891-2.4111c-3.9385-0.0986-5.7217,0.7871-6.3936,4.8145  c-5.7197,34.2773-11.6396,68.5205-17.3867,102.7939c-1.6494,9.8398-2.9814,19.7334-4.3379,29.6201  c-0.2852,2.083-0.041,4.2393-0.041,7.6357c9.8398,0,19.2822-0.1357,28.7188,0.0215c75.3047,1.2539,150.6084,2.5664,225.9131,3.8486  C1006.167,218.9658,1073.5605,219.373,1097.7715,219.373z M1111.5928,187.1143c-1.6895,4.5986-3.6064,8.7119-4.6846,13.0352  c-1.3135,5.2715-2.0508,10.7012-2.7861,16.0967c-0.4424,3.249,1.3857,4.9121,4.4268,6.2324  c13.5283,5.874,27.3896,5.8418,41.625,3.5195c9.6504-1.5732,17.9922-5.5928,25.291-11.8145  c4.4961-3.833,4.2275-6.8652-0.2285-10.5107c-3.3477-2.7393-6.7109-5.4609-10.0742-8.1807  c-9.4971-7.6807-20.2676-11.1143-32.5029-9.957C1125.7129,186.1914,1118.7412,186.5869,1111.5928,187.1143z M738.4229,59.5869  c-1.9209-0.5703-2.8213-0.998-3.7529-1.082c-2.3164-0.209-4.6465-0.3486-6.9727-0.3564c-3.3232-0.0098-6.7822,0.7324-9.9355,0.0342  c-3.6592-0.8096-6.3496,0.0791-9.2871,1.999c-37.5664,24.5498-73.3594,51.4971-108.0586,79.916  c-31.9453,26.1631-63.8701,52.3555-95.5967,78.7842c-3.8574,3.2139-7.5381,2.791-11.957,2.1338  c1.998-2.1836,4.3584-3.8027,6.6074-5.5635c18.7705-14.6943,37.5088-29.4307,56.2852-44.1172  c5.7129-4.4688,11.5518-8.7773,17.2705-13.2393c10.3604-8.083,20.6416-16.2676,31.0146-24.333  c13.626-10.5957,27.2295-21.2217,40.9961-31.6318c8.75-6.6162,17.6602-13.0371,26.7139-19.2314  c9.5283-6.5186,19.3271-12.6406,28.9736-18.9873c2.4512-1.6133,4.7734-3.4229,7.1553-5.1426  c-1.6094-1.2305-2.5557-1.4092-3.4951-1.3799c-15.6553,0.4795-31.3232,0.7549-46.957,1.627  c-4.6709,0.2607-9.7607,1.2871-13.7881,3.5273c-32.5928,18.1289-66.415,34.083-97.5459,54.8115  c-7.4658,4.9707-15.0029,9.835-22.4717,14.8008c-16.4043,10.9043-32.7842,21.8457-49.1768,32.7676  c-9.3613,6.2363-18.7793,12.3896-28.084,18.71c-16.0645,10.9102-32.0293,21.9668-48.1104,32.8525  c-3.2754,2.2178-4.5322,4.9473-3.7705,9.0557c7.9893,0.7891,15.9023,2.0898,23.8213,2.1221  c3.6416,0.0146,7.8418-1.7158,10.8467-3.9316c13.1104-9.668,25.7451-19.9785,38.7949-29.7314  c23.626-17.6572,47.3652-35.1631,71.1865-52.5557c6.8223-4.9814,14.1582-9.252,21.1387-14.0244  c26.7236-18.2715,52.3447-38.2432,81.6621-52.4951c4.6045-2.2393,8.918-5.0752,13.3662-7.6357  c-1.1152,1.9531-2.7256,3.0625-4.3809,4.1006c-19.4307,12.1777-39.4111,23.5664-58.1875,36.6807  c-35.4639,24.7705-70.4521,50.2402-105.1992,76.0117c-15.623,11.5879-30.2119,24.5742-45.2012,37.0088  c-1.4619,1.2129-2.4414,3.0078-4.3945,5.4824c10.167,0,18.7939,0.1943,27.4092-0.0498c10.4668-0.2969,20.9199-1.2705,31.3857-1.3799  c9.6133-0.1006,19.2383,0.8496,28.8496,0.7129c3.0586-0.0439,6.7559-1.3428,9.0029-3.3584  c6.0479-5.4248,11.1738-11.876,17.2031-17.3242c14.1982-12.8271,28.9902-25.0029,43.0352-37.9902  c30.3779-28.0918,62.3936-54.0967,96.8184-77.0518c13.752-9.1699,27.9961-17.6016,41.9736-26.4355  C735.1572,62.7207,736.4297,61.3096,738.4229,59.5869z M550.3984,214.6855c15.3643-14.5254,30.3789-29.4746,46.4336-43.2021  c27.4424-23.4639,55.0801-46.7559,83.5762-68.9102c17.7168-13.7734,37.1465-25.3467,55.8604-37.8291  c2.2598-1.5068,4.8438-2.5273,8.4775-4.3877c-0.7432,6.4834-1,11.7383-1.9883,16.8525  c-6.1689,31.9512-12.1064,63.9541-18.9502,95.7627c-3.2686,15.1904-8.4141,29.9736-12.583,44.9766  c-0.9277,3.3379-2.8145,4.2266-6.1348,4.2539c-30.6484,0.252-61.2959,0.8018-91.9453,0.9873  c-21.3096,0.1289-42.6221-0.1768-63.9336-0.3018c-0.8213-0.0049-1.6416-0.1523-4.4111-0.4258  C547.0986,219.2158,548.3955,216.5781,550.3984,214.6855z M1016.8125,360.9053c-22.4492-0.5146-44.9063-0.6846-67.3594-1.0654  c-16.6416-0.2822-33.2822-0.6514-49.9209-1.0732c-26.9668-0.6846-53.9277-1.6973-80.8984-2.1123  c-35.6416-0.5469-71.29-0.6533-106.9355-0.9414c-3.6436-0.0293-7.2881-0.0039-10.9561-0.0039  c4.4727-17.7314,0.4307-35.502,1.1084-53.1826c0.7822-20.418,4.0635-40.0146,14.6045-57.8086  c2.4297-4.1025,5.5723-7.8975,8.9131-11.3203c5.4209-5.5547,7.5557-12.1133,8.4805-19.6699  c3.2852-26.8623,6.625-53.7275,10.6426-80.4873c3.2539-21.6777,7.5576-43.1973,11.2666-64.8096  c0.4375-2.5449,0.0596-5.2295,0.0596-8.0059c-4.6602-1.0166-6.8955,0.9268-7.5977,5.3887  c-6.0752,38.585-12.0195,77.1924-18.4131,115.7256c-1.9248,11.5957-4.4717,23.1914-8.0518,34.3662  c-1.7236,5.3789-6.5059,9.7783-9.9082,14.6182c-0.6514,0.9268-1.4463,1.7744-1.9697,2.7666  c-3.9502,7.4873-7.6064,15.1426-11.8193,22.4775c-7.1611,12.4727-8.2412,26.3135-8.8096,40.0596  c-0.5488,13.2822,0.082,26.6367,0.6992,39.9365c0.8027,17.3066-0.9307,19.2773-18.0781,18.9609  c-15.7686-0.292-31.54-0.4121-47.3105-0.6143c-13.4502-0.1729-26.8994-0.4219-40.3496-0.4316  c-1.3984-0.001-2.7988,1.3936-4.1982,2.1396c1.3525,0.7139,2.6846,2.0068,4.0586,2.0547  c33.1152,1.1377,66.2344,2.1406,99.3525,3.1816c0.6396,0.0205,1.2734,0.2129,2.5059,0.4307  c0.4756,5.375,0.9482,10.7227,1.5234,17.2217c-10.918,0-20.8633,0.2373-30.7939-0.0479  c-22.8096-0.6543-45.6104-1.5908-68.418-2.3018c-1.4912-0.0459-5.832-0.2246-6.1602-1.0752  c-4.7827-12.3994-14.5884-21.7832-24.2314-31.2383c-24.542-24.0635-54.2236-37.9355-87.7871-44.2031  c-41.7324-7.793-81.2793-2.2148-117.9004,19.6855c-20.8193,12.4502-39.6406,27.4873-54.2964,47.1729  c-0.7837,1.0527-5.8945,1.1016-7.5957,1.0791c-32.8096-0.4395-65.6196-0.8867-98.4307-1.0781  c-11.0854-0.0654-22.1748,0.5684-33.2622,0.8838c-0.1064,0.7354-0.2124,1.4707-0.3184,2.2061  c1.6133,0.4375,3.2188,1.2217,4.8418,1.2598c31.1475,0.7256,62.2979,1.3213,93.4458,2.042  c11.7852,0.2734,23.5649,0.7939,35.6841,1.2139c-0.4946,3.9023-0.9507,7.498-1.4546,11.4717  c-45.1509-0.7852-90.2124-1.5693-135.3433-2.3535c0-12.5283,0-24.7402,0-36.9316c50.4165-0.2207,100.0493,4.3047,149.6885,1.377  c0.1504-0.6826,0.3013-1.3652,0.4521-2.0469c-1.1963-0.6563-2.3833-1.8662-3.5894-1.8848  c-22.8066-0.3682-45.6182-0.4717-68.4238-0.8838c-24.4829-0.4414-48.96-1.2188-73.4429-1.6611  c-3.9229-0.0713-7.8569,1.1494-11.7979,1.2373c-8.9453,0.1982-17.8975,0.0625-27.6841,0.0625  c0.562-4.3506,1.0747-8.3213,1.6118-12.4824c9.5156,0,18.3037,0.1719,27.0771-0.1074c2.5586-0.082,5.3828-0.9863,7.5127-2.3857  c1.5859-1.042,2.9951-3.4053,3.209-5.3223c2.4009-21.4814,4.4326-43.0039,6.8945-64.4766  c0.4053-3.5303,1.8794-7.2266,3.8369-10.2031c1.6685-2.5371,4.4409-5.1885,7.2441-6.0039  c22.3633-6.498,44.833-12.6338,67.3042-18.7568c21.6313-5.8936,43.6665-10.5781,64.8257-17.8301  c13.5244-4.6367,25.7871-12.9609,38.6055-19.6514c59.8691-31.2461,119.7119-62.543,179.6152-93.7227  c20.6563-10.752,41.4648-21.209,62.1934-31.8223c1.626-0.833,3.4199-1.5742,4.6973-2.8115  c6.6846-6.4707,15.0752-7.3896,23.7725-8.1172c47.4805-3.9727,95.0264-6.4502,142.6738-7.0166  c46.3047-0.5498,92.6172-2.0547,138.9102-1.5762c37.9521,0.3926,75.8799,3.0791,113.8164,4.7744  c1.123,0.0508,26.376,0.3203,35.4424,6.8115c-2.5498,1.7666-4.9023,3.7285-7.5459,5.1455  c-3.5576,1.9072-4.4316,3.5801-0.8408,6.4541c12.2002,9.7686,24.1611,19.8379,36.4434,29.5  c28.6533,22.54,57.4863,44.8535,86.1553,67.376c13.4785,10.5889,26.7725,21.4141,40.0859,32.2129  c2.4502,1.9863,4.5449,4.4043,6.8818,6.5381c3.0635,2.7979,6.0078,5.2754,4.1494,10.4014c-0.6426,1.7695,0.7949,4.9951,2.2676,6.71  c7.6963,8.9619,15.5264,17.8271,23.6846,26.3672c4.5088,4.7207,7.4971,9.8945,9.2197,16.2012  c2.8359,10.3848,6.668,20.5039,9.3701,30.9189c1.9873,7.6631,3.3916,15.5723,4.0703,23.457  c0.9971,11.5918,1.1875,23.2559,1.5791,34.8936c0.1826,5.4307,0.0303,10.873,0.0303,16.5332  c-15.8271,0-30.6162,0.2217-45.3965-0.0498c-24.6035-0.4521-49.2021-1.167-73.7998-1.8789  C1134.5957,362.4355,1016.8125,360.9053,1016.8125,360.9053z M246.9468,330.0918c4.9072-0.3398,7.3057-3.5713,7.8574-8.2021  c0.2734-2.292,0.4087-4.6611,0.1538-6.9453c-1.0288-9.2129-0.2114-35.9678-0.1099-40.1133c0.123-5.0498-2.5674-8.3105-7.3247-9.3428  c-3.6929-0.8018-7.5659-1.04-11.3608-1.0547c-7.9854-0.0303-15.9736,0.1982-23.9575,0.4238  c-4.4829,0.126-9.0176,0.0928-13.4277,0.7813c-7.4009,1.1543-12.2378,5.4072-12.5522,12.7041  c-0.5776,13.4092-0.7739,26.915,0.2183,40.2803c0.6089,8.1982,3.2324,11.6006,13.6553,12.2979  c6.7876,0.4551,13.6309,0.0859,20.4487,0.0859C220.5542,331.1699,238.1636,330.7002,246.9468,330.0918z M745.6338,270.1387  c16.0889,0,32.0293,0.0352,47.9697-0.084c1.0127-0.0068,2.5576-0.9912,2.9375-1.9033c2.6084-6.2646-0.2031-11.0479-6.8193-11.8789  c-1.4805-0.1855-2.9912-0.2422-4.4844-0.2041c-10.1455,0.2607-20.29,0.5586-30.4346,0.8535  c-8.2783,0.2402-8.2686,0.2461-8.8145,8.2607C745.9287,266.0605,745.5938,268.4272,745.6338,270.1387z"/>
<path fill-rule="evenodd" clip-rule="evenodd" stroke="#000000" stroke-width="0.2835" stroke-miterlimit="10" d="M684.5049,62.3359  c-12.874,8.7891-25.9678,17.2734-38.5791,26.4238c-34.8623,25.2949-69.7363,50.582-104.1875,76.4297  c-23.1455,17.3652-45.6377,35.6064-68.2705,53.6465c-3.5537,2.833-6.9189,4.3262-12.584,2.5479  c5.6465-4.2666,10.6504-8.1211,15.7295-11.8721c19.2617-14.2227,38.8486-28.0234,57.7588-42.6982  c35.4609-27.5166,71.333-54.4355,108.9277-78.9922c13.5479-8.8486,27.1934-17.5488,40.7939-26.3164  C684.2305,61.7822,684.3682,62.0596,684.5049,62.3359z"/>
<path fill-rule="evenodd" clip-rule="evenodd" stroke="#000000" stroke-width="0.2835" stroke-miterlimit="10" d="  M1444.8301,451.6621c1.4229,34.584,25.3604,62.2451,63.6914,62.8701c39.3633,0.6426,66.1934-27.6133,66.6572-62.6172  c0.46-34.7773-24.875-64.2471-70.2266-63.4316C1473.6748,389.0459,1445.248,417.9541,1444.8301,451.6621z M1502.0918,402.9893  c0.1895-0.5801,0.6592-4.6494,1.2002-6.3076c0.748-2.293,3.3018-4.4834,6.7422-4.4736c4.6455,0.0137,6.2842,2.0225,6.7754,5.4385  c0.5498,3.8223,0.5654,6.8115,0.5654,6.8115c7.7871,0.6006,9.792,2.207,15.9795,5.4922c3.1035-3.1172,2.8018-4.666,7.8818-6.0127  c2.1582-0.5723,6.4043-0.0322,6.8711,1.1348c1.0938,2.7305,1.416,5.5215-0.248,8.4746c-1.1094,1.9688-3.4219,3.2188-3.4219,3.2188  s1.8262,2.4492,4.7676,6.1826c2.7178,3.4492,4.4521,7.6738,6.8027,11.8848c3.3643-1.374,7.7852-2.6279,10.4736,1.5381  c1.3584,2.1055,1.9121,6.4707,0.6387,8.0879c-1.5518,1.9707-5.4092,2.126-8.5342,3.1533c-0.8545,6.333-1.8213,13.499-2.6973,19.9971  c2.2119,1.5088,6.2734,3.1377,6.1719,4.4375c-0.25,3.1807-1.6816,7.2813-4.0742,8.9424c-1.7422,1.208-5.7754-0.8857-9.5605-1.666  c-4.5459,3.8496-10.1348,8.583-14.7793,12.5166c0.2139,3.2715,1.668,7.293,0.2783,8.998c-1.6221,1.9912-5.9492,3.0137-8.6768,2.4375  c-1.8262-0.3857-2.9121-4.2842-4.4404-6.7959c-6.1445,0-11.4424,0-18.6357,0c-0.2656,0.4424-0.3125,0.7549-0.877,1.2676  c-2.0547,2.0547-3.8555,5.3369-6.2334,5.8291c-2.5039,0.5176-6.4961-0.8799-8.0771-2.8525c-1.2715-1.5859,0.084-5.2773,0.3027-8.458  c-4.4316-3.1826-10.04-7.208-16.0547-11.5264c-2.0898,0.2334-5.3789,0.7607-8.6777,0.8398  c-0.7012,0.0176-1.6768-1.4961-2.1221-2.4863c-2.1865-4.8574-0.416-9.0273,4.541-10.9209  c-0.958-3.5068-2.2705-6.9678-2.7734-10.5439c-0.4766-3.3838-0.125-5.2715-0.125-8.7217c-0.3877-0.1875-0.7314-0.3125-1.3691-0.6006  c-2.5508-1.6064-6.4277-2.708-7.2822-4.959c-0.8701-2.2891,0.4102-6.6084,2.3027-8.3496c1.5234-1.4014,5.3643-0.2842,8.0889-0.2842  c3.8301-5.6484,8.1104-11.9629,12.4814-18.4102c-2.6611-0.834-7.9336-1.749-5.0791-7.25c1.3525-2.6055,4.9033-5.165,7.7344-5.5146  c1.8486-0.2285,4.1914,3.5508,6.5469,5.7539c4.2363-1.2383,9.4824-3.2236,14.9092-4.2705  C1501.9238,404.7295,1502.0918,402.9893,1502.0918,402.9893z"/>
<path fill-rule="evenodd" clip-rule="evenodd" stroke="#000000" stroke-width="0.2835" stroke-miterlimit="10" d="  M1510.7031,489.5625c-22.1514,0.5947-38.5234-16.9063-39.0879-35.6826c-0.6865-22.8086,12.6328-37.9238,37.6279-39.6045  c17.4648-1.1748,40.1406,13.3359,40.1494,35.9248C1549.4004,471.8223,1532.708,489.166,1510.7031,489.5625z M1510.5566,476.1924  c15.2207,0.1357,24.7285-8.6738,24.8721-23.0439c0.1436-14.3223-10.2715-24.9727-24.5391-25.0947  c-14.4883-0.123-26.0605,10.6602-25.1992,25.4902C1486.4736,467.0254,1494.5342,476.5723,1510.5566,476.1924z"/>
<path fill-rule="evenodd" clip-rule="evenodd" stroke="#000000" stroke-width="0.2835" stroke-miterlimit="10" d="  M1511.3164,457.6992c-4.2012,1.3252-7.1836-1.5225-6.8975-5.7686c0.2588-3.8604,2.2217-6.0996,6.29-6.1709  c5.084-0.0889,4.8418,4.125,4.7891,7.0117C1515.4678,454.4395,1513.4248,457.0342,1511.3164,457.6992z"/>
<path fill-rule="evenodd" clip-rule="evenodd" stroke="#000000" stroke-width="0.2835" stroke-miterlimit="10" d="M377.29,584.0205  c-0.4844-0.2578-0.9893-0.4756-1.4795-0.7236c-29.8779-15.0742-52.4248-37.5889-63.9805-68.998  c-15.499-42.127-10.9707-82.9609,14.3779-120.4053c17.3379-25.6094,40.9463-44.1846,70.8613-52.6445  c58.7412-16.6123,119.7461-0.5713,160.1289,57.1221c8.6934,12.4229,13.8213,26.6357,16.7549,41.4287  c9.4463,47.6348-5.7188,87.6533-39.1172,121.4199c-15.916,16.0918-35.9092,25.9316-57.4229,31.9785  c-12.916,3.6309-26.293,6.791-39.7676,7.2568C428.5742,600.7676,396.0664,594.0439,377.29,584.0205z M435.8613,555.1494  c24.8281-0.9971,47.8428-6.9365,66.5996-24.9023c26.1133-25.0107,35.6904-55.2852,24.4551-89.4395  c-11.8438-36.002-39.1045-56.1133-76.4912-60.3457c-38.9912-4.415-69.749,10.1025-90.4844,44.3018  c-16.1348,26.6143-15.6963,71.5049,5.583,92.7334c5.2373,5.2246,9.3477,11.7031,14.998,16.3691  C396.4463,547.0127,414.5254,555.2549,435.8613,555.1494z"/>
<path fill-rule="evenodd" clip-rule="evenodd" stroke="#000000" stroke-width="0.2835" stroke-miterlimit="10" d="  M368.1387,467.6777c1.5654,38.043,27.8965,68.4697,70.0605,69.1572c43.2998,0.707,72.8125-30.374,73.3232-68.8789  c0.5059-38.2549-27.3623-70.6719-77.249-69.7744C399.8682,398.7998,368.5986,430.5996,368.1387,467.6777z M431.127,414.1377  c0.208-0.6377,0.7246-5.1143,1.3203-6.9385c0.8223-2.5225,3.6318-4.9316,7.416-4.9209c5.1104,0.0156,6.9131,2.2246,7.4531,5.9824  c0.6045,4.2041,0.6221,7.4932,0.6221,7.4932c8.5654,0.6602,10.7715,2.4277,17.5771,6.041c3.4141-3.4287,3.082-5.1328,8.6699-6.6143  c2.374-0.6289,7.0449-0.0352,7.5586,1.248c1.2031,3.0039,1.5576,6.0742-0.2734,9.3223c-1.2197,2.166-3.7637,3.541-3.7637,3.541  s2.0088,2.6943,5.2441,6.8008c2.9902,3.7939,4.8975,8.4414,7.4834,13.0732c3.7002-1.5117,8.5635-2.8906,11.5205,1.6914  c1.4941,2.3164,2.1035,7.1182,0.7031,8.8975c-1.707,2.167-5.9502,2.3379-9.3877,3.4688  c-0.9404,6.9658-2.0039,14.8486-2.9668,21.9961c2.4326,1.6602,6.9004,3.4521,6.7891,4.8818  c-0.2754,3.498-1.8506,8.0088-4.4824,9.8359c-1.916,1.3291-6.3525-0.9736-10.5166-1.832c-5,4.2344-11.1475,9.4414-16.2568,13.7676  c0.2354,3.5986,1.835,8.0225,0.3066,9.8984c-1.7852,2.1904-6.5449,3.3145-9.5449,2.6807c-2.0088-0.4238-3.2031-4.7119-4.8848-7.4746  c-6.7588,0-12.5859,0-20.499,0c-0.292,0.4863-0.3438,0.8301-0.9648,1.3936c-2.2598,2.2607-4.2412,5.8711-6.8564,6.4121  c-2.7539,0.5693-7.1455-0.9678-8.8848-3.1377c-1.3984-1.7441,0.0918-5.8047,0.333-9.3037  c-4.875-3.501-11.0439-7.9287-17.6602-12.6787c-2.2988,0.2568-5.917,0.8369-9.5459,0.9238  c-0.7715,0.0195-1.8438-1.6455-2.334-2.7354c-2.4053-5.3428-0.458-9.9297,4.9951-12.0127c-1.0537-3.8574-2.498-7.665-3.0508-11.5986  c-0.5244-3.7217-0.1377-5.7988-0.1377-9.5938c-0.4268-0.2061-0.8047-0.3438-1.5059-0.6602  c-2.8057-1.7676-7.0703-2.9795-8.0107-5.4551c-0.957-2.5186,0.4512-7.2695,2.5332-9.1846c1.6758-1.542,5.9004-0.3125,8.8975-0.3125  c4.2139-6.2139,8.9219-13.1592,13.7295-20.252c-2.9268-0.917-8.7266-1.9238-5.5869-7.9746  c1.4883-2.8662,5.3936-5.6816,8.5078-6.0664c2.0342-0.251,4.6113,3.9063,7.2021,6.3301c4.6602-1.3623,10.4307-3.5469,16.3994-4.6982  C430.9424,416.0518,431.127,414.1377,431.127,414.1377z"/>
<path fill-rule="evenodd" clip-rule="evenodd" stroke="#000000" stroke-width="0.2835" stroke-miterlimit="10" d="  M440.5996,509.3682c-24.3672,0.6543-42.376-18.5967-42.9971-39.251c-0.7549-25.0889,13.8965-41.7158,41.3906-43.5645  c19.2119-1.292,44.1553,14.6689,44.1641,39.5176C483.166,489.8545,464.8047,508.9326,440.5996,509.3682z M440.4385,494.6611  c16.7422,0.1494,27.2012-9.541,27.3594-25.3486c0.1572-15.7539-11.2988-27.4697-26.9932-27.6035  c-15.9375-0.1357-28.667,11.7256-27.7197,28.0391C413.9473,484.5771,422.8135,495.0791,440.4385,494.6611z"/>
<path fill-rule="evenodd" clip-rule="evenodd" stroke="#000000" stroke-width="0.2835" stroke-miterlimit="10" d="  M441.2734,474.3184c-4.6211,1.458-7.9014-1.6738-7.5869-6.3447c0.2852-4.2471,2.4443-6.71,6.9189-6.7881  c5.5928-0.0977,5.3262,4.5371,5.2686,7.7129C445.8408,470.7334,443.5928,473.5869,441.2734,474.3184z"/>
</svg>