<?xml version="1.0" encoding="UTF-8" standalone="no"?>
<!-- Created with Inkscape (http://www.inkscape.org/) -->

<svg
   version="1.1"
   id="svg69"
   width="2048"
   height="2048"
   viewBox="0 0 2048 2048"
   sodipodi:docname="redlogo.svg"
   xml:space="preserve"
   inkscape:version="1.2.2 (b0a8486541, 2022-12-01)"
   inkscape:export-filename="redlogo.png"
   inkscape:export-xdpi="24"
   inkscape:export-ydpi="24"
   xmlns:inkscape="http://www.inkscape.org/namespaces/inkscape"
   xmlns:sodipodi="http://sodipodi.sourceforge.net/DTD/sodipodi-0.dtd"
   xmlns="http://www.w3.org/2000/svg"
   xmlns:svg="http://www.w3.org/2000/svg"><sodipodi:namedview
     id="namedview10"
     pagecolor="#ffffff"
     bordercolor="#000000"
     borderopacity="0.25"
     inkscape:showpageshadow="2"
     inkscape:pageopacity="0.0"
     inkscape:pagecheckerboard="0"
     inkscape:deskcolor="#d1d1d1"
     showgrid="false"
     inkscape:zoom="0.23298711"
     inkscape:cx="1349.8601"
     inkscape:cy="1115.9416"
     inkscape:window-width="1920"
     inkscape:window-height="1007"
     inkscape:window-x="0"
     inkscape:window-y="0"
     inkscape:window-maximized="1"
     inkscape:current-layer="g75"
     showguides="false" /><defs
     id="defs73"><style
       id="style433">.cls-1{fill:#fff;stroke:#fff;stroke-linecap:round;stroke-linejoin:round;stroke-width:.09px}</style></defs><g
     id="g75"
     transform="translate(170,632.25385)"><rect
       style="fill:#880000;fill-opacity:1;stroke:none;stroke-width:1.37953;stroke-opacity:1;paint-order:stroke markers fill"
       id="rect1960"
       width="2048"
       height="2048"
       x="-170"
       y="-632.25385" /><g
       id="g1057"
       transform="translate(-1.219692e-5,1.3067962e-5)"><g
         id="g449"
         transform="matrix(4.8863996,0,0,4.8863996,574.74257,23.409337)"
         style="fill:#000000;fill-opacity:1;stroke:none;stroke-opacity:1"><g
           id="g1748"><path
             style="fill:#ffffff;fill-opacity:1;stroke-width:1.33333"
             d="M 1330.6667,650.00978 V 543.33332 h -13.818 c -38.9246,-2.79883 -57.0873,19.57623 -75.1481,53.80032 l -12.4011,24.19968 -17.6497,35.97881 -17.6498,35.97881 -9.3977,19.25377 -9.3977,19.25378 -2.7316,-4.56592 -2.7315,-4.56592 -9.3692,-15.33334 -9.3692,-15.33333 -15.9302,-26 -15.9303,-26 -18.9046,-30.877 -18.9046,-30.877 v -0.88952 -0.88953 l 6.1916,-9.5668 6.1916,-9.56681 17.9639,-31.33333 17.9638,-31.33334 12.4412,-18.66666 12.4411,-18.66667 11.2225,-14 11.2224,-14 c 27.9141,-31.22932 46.9558,-37.60585 61.6952,-38.66666 L 1392.3334,390.31222 1552,389.95776 v 0.4281 0.42809 l -9.4016,27.25969 -9.4016,27.25968 -4.5094,13.33333 -4.5094,13.33334 -11.4157,33.33333 -11.4159,33.33333 0.024,108.66667 0.024,108.66666 -85.3642,0.34313 -85.3635,0.34314 z"
             id="path1049"
             transform="matrix(0.20464966,0,0,0.20464966,-117.62087,-4.7907128)" /><path
             style="fill:#ffffff;fill-opacity:1;stroke-width:1.33333"
             d="m 298.22223,755.77775 -0.88889,-0.88888 V 647.77776 540.66665 H 252.66667 208 v -0.41705 -0.41704 L 195.25082,502.58293 182.50163,465.33332 177.9711,451.99999 173.44056,438.66666 164.72028,413.36075 156,388.05484 v -0.36506 -0.36506 l 201.57797,0.33763 201.57796,0.33764 4.40856,12.66667 4.40856,12.66666 6.75127,20 6.75125,20 1.1386,2.66667 1.13861,2.66666 4.70655,14 4.70655,14 8.09676,24 8.09676,24 2.09743,5.93434 -2.79015,0.0664 -69.33334,0.33298 -69.33333,0.33297 L 469.6588,649 469.31757,756.66667 h -85.10323 -85.10323 z"
             id="path270"
             sodipodi:nodetypes="ccccccccccccccccccccccccccccccccccccc"
             transform="matrix(0.20464966,0,0,0.20464966,-117.62087,-4.7907128)" /><path
             class="cls-1"
             d="M 16.23,4.47 V 78.35 H 4 l 12.2,31.87 v 44.91 h 36.18 v -43.64 c 2.22,-1.9 8.08,-2.38 12.21,4.19 4.6,6.74 16.58,34.88 18.39,39.41 h 43.29 c 0,0 -35.65,-60.19 -41.55,-67.22 -7.45,-8.88 -18.55,-9.2 -31.24,-9.35 v -74 H 16.23 Z"
             id="path439"
             style="fill:#ffffff;fill-opacity:1;stroke:none;stroke-opacity:1"
             transform="translate(-3.98,-4.42)" /><path
             class="cls-1"
             d="m 57.77,4.47 v 34.41 c 0,0 20.93,-2.06 24.57,14.59 3,13.6 -7.77,22.67 -7.77,22.67 a 25.91,25.91 0 0 1 14.28,9.51 C 94.72,93.39 99,101.83 99,101.51 109,96.28 123.84,71.17 117.71,45.7 107.65,4.38 72.83,4.47 57.77,4.47 Z"
             transform="translate(-3.98,-4.42)"
             id="path441"
             style="fill:#ffffff;fill-opacity:1;stroke:none;stroke-opacity:1" /></g></g></g></g></svg>
